<svg width="328" height="74" viewBox="0 0 328 74" fill="none" xmlns="http://www.w3.org/2000/svg">
<path d="M46.08 41.464C46.08 34.768 42.048 30.016 33.84 27.928L19.8 24.4C14.256 22.96 12.096 20.224 12.096 16.624C12.096 11.44 16.056 8.92 23.472 8.92C33.048 8.92 37.872 12.952 37.872 21.016H44.568C44.568 10.072 37.296 3.448 23.472 3.448C11.808 3.448 5.472 8.128 5.472 16.912C5.472 22.96 8.784 27.568 16.776 29.656L30.96 33.328C36.864 34.84 39.456 37.864 39.456 41.824C39.456 47.44 35.568 50.248 26.784 50.248C15.552 50.248 9.72 45.64 9.72 35.92H3.096C3.096 48.664 11.232 55.792 26.64 55.792C40.176 55.792 46.08 50.536 46.08 41.464ZM54.1181 68.392H60.5261V46.288C62.9021 51.76 67.9421 55.72 75.8621 55.72C86.1581 55.72 92.6381 48.016 92.6381 37.144C92.6381 26.2 86.1581 18.496 75.8621 18.496C68.1581 18.496 63.0461 22.312 60.5261 27.928V19.216H54.1181V68.392ZM60.6701 37.144C60.6701 28.288 66.7901 23.968 73.7741 23.968C80.7581 23.968 86.3021 28.144 86.3021 37.144C86.3021 46.072 80.7581 50.248 73.7741 50.248C66.7901 50.248 60.6701 45.856 60.6701 37.144ZM97.2596 55H123.108V49.528H113.1V23.392C113.1 20.44 111.66 19.216 109.068 19.216H99.7796V24.688H107.196V49.528H97.2596V55ZM104.316 8.272C104.316 11.08 106.548 13.096 109.356 13.096C112.236 13.096 114.54 11.08 114.54 8.272C114.54 5.464 112.236 3.448 109.356 3.448C106.548 3.448 104.316 5.464 104.316 8.272ZM128.743 55H155.167V49.528H145.159V5.68C145.159 3.304 143.791 2.08 141.415 2.08H131.263V7.552H138.751V49.528H128.743V55ZM162.54 55H168.948V39.808C168.948 30.16 173.772 23.968 181.548 23.968C187.668 23.968 190.476 26.848 190.476 34.192V55H196.884V33.472C196.884 23.824 191.988 18.496 183.78 18.496C175.86 18.496 170.892 22.528 168.948 28.936V19.216H162.54V55Z" fill="#FFFFFF"/>
<path d="M282.584 49.528L269.912 49.6V24.688H281.144V19.216H269.912V8.2L263.504 10.144V19.216H255.584V24.688H263.504V49.96C263.504 53.416 265.16 55 268.544 55H282.584V49.528ZM288.467 45.064C288.467 48.808 290.051 55.72 300.563 55.72C309.419 55.72 313.595 51.184 315.251 46.144V50.68C315.251 53.416 316.835 55 319.571 55H326.123V49.528H320.867V34.552C320.867 24.904 315.323 18.496 304.955 18.496C295.595 18.496 290.051 23.824 289.259 31.96H295.595C296.171 25.984 299.843 23.68 304.811 23.68C311.291 23.68 314.171 26.776 314.459 33.256L300.419 34.624C291.923 35.416 288.467 39.376 288.467 45.064ZM294.803 44.272C294.803 40.816 297.107 39.592 301.499 39.16L314.459 37.792C314.459 44.992 309.347 50.464 301.571 50.464C297.467 50.464 294.803 48.376 294.803 44.272Z" fill="#FFFFFF"/>
<path d="M217 22.7902C217 19.5174 219.509 16.7909 222.77 16.5191L239.662 15.1115C240.382 15.0515 241 15.62 241 16.343V21.5C241 22.3284 240.328 23 239.5 23L217.21 23C217.094 23 217 22.9061 217 22.7902Z" fill="#FFFFFF"/>
<path d="M215.79 48C212.517 48 209.791 45.4913 209.519 42.2298L208.112 25.3383C208.051 24.6179 208.62 24 209.343 24L214.5 24C215.328 24 216 24.6716 216 25.5L216 47.7902C216 47.9061 215.906 48 215.79 48Z" fill="#FFFFFF"/>
<path d="M241 49.2098C241 52.4826 238.491 55.2091 235.23 55.4809L218.338 56.8885C217.618 56.9485 217 56.38 217 55.657L217 50.5C217 49.6716 217.672 49 218.5 49L240.79 49C240.906 49 241 49.0939 241 49.2098Z" fill="#FFFFFF"/>
<path d="M242.218 24C245.521 24 248.307 26.4595 248.717 29.737L250.819 46.553C250.915 47.3213 250.316 48 249.542 48L243.5 48C242.672 48 242 47.3284 242 46.5L242 24.2183C242 24.0977 242.098 24 242.218 24Z" fill="#FFFFFF"/>
</svg>
