<svg width="375" height="759" viewBox="0 0 375 759" fill="none" xmlns="http://www.w3.org/2000/svg">
<g clip-path="url(#clip0_692_319)">
<rect width="375" height="759" fill="black"/>
<mask id="mask0_692_319" style="mask-type:alpha" maskUnits="userSpaceOnUse" x="0" y="0" width="375" height="760">
<rect width="375" height="760" fill="black"/>
</mask>
<g mask="url(#mask0_692_319)">
<g filter="url(#filter0_f_692_319)">
<path d="M-33.0664 456.11L90.5847 -113.426L-60.2425 -174.447L-154 380.295L-33.0664 456.11Z" fill="#59FF0B"/>
</g>
<g filter="url(#filter1_f_692_319)">
<path d="M269.552 410.871L183.043 292.5L157 204.5L183.043 125.551L251.116 -83.1161L401.465 10.3441L344.751 221.034L269.552 410.871Z" fill="#FF2E00"/>
</g>
<g filter="url(#filter2_f_692_319)">
<path d="M376.53 495.338L235.834 288.401V468.668L291.331 791.667L409.555 829.202L376.53 495.338Z" fill="#0BFFA7"/>
</g>
<g filter="url(#filter3_f_692_319)">
<path d="M203 289.448L361.391 85L456 171.786V690L351.824 558.152L264.655 594.869L203 289.448Z" fill="#E08383"/>
</g>
<g filter="url(#filter4_f_692_319)">
<path d="M-126.548 611.724L-114.389 397.92L-14.6505 356.4L-4.14275 447.158L26.0479 507.136L-12.1417 590.105L126.309 695.015L261.347 920.433L-80.0061 736.073L-126.548 611.724Z" fill="#FFD600"/>
</g>
<g filter="url(#filter5_f_692_319)">
<path d="M190.261 331.544L156.542 -151.312L79.9272 -166L7.79395 -63.6454V203.945L35.4886 722.889L206.694 942L402.179 767.125L279.894 524.32L190.261 331.544Z" fill="#251FEA"/>
</g>
</g>
</g>
<defs>
<filter id="filter0_f_692_319" x="-294" y="-314.447" width="524.585" height="910.557" filterUnits="userSpaceOnUse" color-interpolation-filters="sRGB">
<feFlood flood-opacity="0" result="BackgroundImageFix"/>
<feBlend mode="normal" in="SourceGraphic" in2="BackgroundImageFix" result="shape"/>
<feGaussianBlur stdDeviation="70" result="effect1_foregroundBlur_692_319"/>
</filter>
<filter id="filter1_f_692_319" x="37" y="-203.116" width="484.465" height="733.987" filterUnits="userSpaceOnUse" color-interpolation-filters="sRGB">
<feFlood flood-opacity="0" result="BackgroundImageFix"/>
<feBlend mode="normal" in="SourceGraphic" in2="BackgroundImageFix" result="shape"/>
<feGaussianBlur stdDeviation="60" result="effect1_foregroundBlur_692_319"/>
</filter>
<filter id="filter2_f_692_319" x="155.834" y="208.401" width="333.721" height="700.801" filterUnits="userSpaceOnUse" color-interpolation-filters="sRGB">
<feFlood flood-opacity="0" result="BackgroundImageFix"/>
<feBlend mode="normal" in="SourceGraphic" in2="BackgroundImageFix" result="shape"/>
<feGaussianBlur stdDeviation="40" result="effect1_foregroundBlur_692_319"/>
</filter>
<filter id="filter3_f_692_319" x="83" y="-35" width="493" height="845" filterUnits="userSpaceOnUse" color-interpolation-filters="sRGB">
<feFlood flood-opacity="0" result="BackgroundImageFix"/>
<feBlend mode="normal" in="SourceGraphic" in2="BackgroundImageFix" result="shape"/>
<feGaussianBlur stdDeviation="60" result="effect1_foregroundBlur_692_319"/>
</filter>
<filter id="filter4_f_692_319" x="-286.548" y="196.4" width="707.895" height="884.032" filterUnits="userSpaceOnUse" color-interpolation-filters="sRGB">
<feFlood flood-opacity="0" result="BackgroundImageFix"/>
<feBlend mode="normal" in="SourceGraphic" in2="BackgroundImageFix" result="shape"/>
<feGaussianBlur stdDeviation="80" result="effect1_foregroundBlur_692_319"/>
</filter>
<filter id="filter5_f_692_319" x="-252.206" y="-426" width="914.385" height="1628" filterUnits="userSpaceOnUse" color-interpolation-filters="sRGB">
<feFlood flood-opacity="0" result="BackgroundImageFix"/>
<feBlend mode="normal" in="SourceGraphic" in2="BackgroundImageFix" result="shape"/>
<feGaussianBlur stdDeviation="130" result="effect1_foregroundBlur_692_319"/>
</filter>
<clipPath id="clip0_692_319">
<rect width="375" height="759" fill="white"/>
</clipPath>
</defs>
</svg>
