<svg width="500" height="500" viewBox="0 0 500 500" fill="none" xmlns="http://www.w3.org/2000/svg">
<mask id="mask0_679_67" style="mask-type:alpha" maskUnits="userSpaceOnUse" x="0" y="0" width="500" height="500">
<rect width="500" height="500" rx="250" fill="white"/>
</mask>
<g mask="url(#mask0_679_67)">
<rect width="500" height="500" rx="100" fill="white"/>
</g>
<path d="M185 182.604C185 167.001 196.96 154.003 212.509 152.708L303.375 145.135C304.25 145.063 305 145.753 305 146.63V183.5C305 184.328 304.328 185 303.5 185L186 185C185.448 185 185 184.552 185 184V182.604Z" fill="black"/>
<path d="M177.604 310C162.001 310 149.003 298.04 147.708 282.491L140.135 191.625C140.062 190.75 140.753 190 141.63 190L178.5 190C179.328 190 180 190.672 180 191.5L180 309C180 309.552 179.552 310 179 310L177.604 310Z" fill="black"/>
<path d="M305 317.396C305 332.999 293.04 345.997 277.491 347.292L186.625 354.865C185.75 354.938 185 354.247 185 353.37L185 316.5C185 315.672 185.672 315 186.5 315L304 315C304.552 315 305 315.448 305 316L305 317.396Z" fill="black"/>
<path d="M313.517 190C328.646 190 341.408 201.266 343.285 216.279L354.789 308.314C354.901 309.209 354.203 310 353.301 310L311.5 310C310.672 310 310 309.328 310 308.5L310 191C310 190.448 310.448 190 311 190L313.517 190Z" fill="black"/>
</svg>
